<svg xmlns="http://www.w3.org/2000/svg" xmlns:xlink="http://www.w3.org/1999/xlink" width="655" height="655" viewBox="0 0 655 655">
  <defs>
    <clipPath id="clip-path">
      <rect id="Rectangle_3" data-name="Rectangle 3" width="655" height="655" transform="translate(740 2173)" fill="#fff" stroke="#707070" stroke-width="1"/>
    </clipPath>
    <clipPath id="clip-path-2">
      <path id="Path_33" data-name="Path 33" d="M342.9,633.952c-2.941,15.807-18.3,23.882-32.672,21.875-7.966-1.12-14.267-2.676-19.168-10.346-3.936-6.146-7-16.227-9.335-33.2-1.556-11.669.809-25.127,4.932-38.18,9.335-29.561,27.585-57.208,27.585-57.208s13.178,18.592,14.189,39.954,6.923,54.454,6.923,54.454S345.829,618.161,342.9,633.952Z" fill="#407bff" stroke="#263238" stroke-linecap="round" stroke-linejoin="round" stroke-width="1.556"/>
    </clipPath>
    <clipPath id="clip-path-3">
      <path id="Path_43" data-name="Path 43" d="M117.932,704.789s25.08-211.172,138.78-217.676l50.735,18.234a64.209,64.209,0,0,1,6.861,11.544,75.209,75.209,0,0,1,6.394,46.052,78.88,78.88,0,0,1-6.814,20.381c-15.465,31.537-39.051,77.387-46.675,121.448" fill="#407bff" stroke="#263238" stroke-linecap="round" stroke-linejoin="round" stroke-width="1.556"/>
    </clipPath>
    <clipPath id="clip-path-4">
      <path id="Path_83" data-name="Path 83" d="M229.578,545.192c1.4,34.228-13.769,54.578-13.769,54.578s-9.1,24.146-6.068,37.34-27.9,30.805-40.638,29.561-20.023-7.219-21.3-21.159,6.068-25.687,6.068-25.687-1.758-38.46,17.021-71.568,33.326-34.975,33.326-34.975" fill="#407bff" stroke="#263238" stroke-linecap="round" stroke-linejoin="round" stroke-width="1.556"/>
    </clipPath>
  </defs>
  <g id="Mask_Group_2" data-name="Mask Group 2" transform="translate(-740 -2173)" clip-path="url(#clip-path)">
    <g id="Late_at_night-bro" data-name="Late at night-bro" transform="translate(691.294 2099.867)">
      <g id="freepik--background-simple--inject-38">
        <path id="Path_1" data-name="Path 1" d="M669.005,236.143c-78.631-176.866-198.337-176.571-254.8-56.165s-204.622-1.556-314.93,118.71A188.784,188.784,0,0,0,57.41,372.854c-36.858,122.537,47.2,248.216,179.153,271.46L426.9,677.842c125.026,22.015,245.82-56.6,267.9-175.5C710.546,417.926,707.434,322.554,669.005,236.143Z" fill="#407bff"/>
        <path id="Path_2" data-name="Path 2" d="M669.005,236.143c-78.631-176.866-198.337-176.571-254.8-56.165s-204.622-1.556-314.93,118.71A188.784,188.784,0,0,0,57.41,372.854c-36.858,122.537,47.2,248.216,179.153,271.46L426.9,677.842c125.026,22.015,245.82-56.6,267.9-175.5C710.546,417.926,707.434,322.554,669.005,236.143Z" fill="#fff" opacity="0.7"/>
      </g>
      <g id="freepik--Window--inject-38">
        <rect id="Rectangle_4" data-name="Rectangle 4" width="161.51" height="384.787" transform="translate(354.184 167.531)" fill="#263238"/>
        <rect id="Rectangle_5" data-name="Rectangle 5" width="161.51" height="384.787" transform="translate(521.544 167.531)" fill="#263238"/>
        <path id="Path_3" data-name="Path 3" d="M478.432,433.5h37.262V552.318H354.184V451.5h16.585V406.179h22.171l13.131,13.131v10.58l12.244-12.26V390.668l12.322-12.307V321.014h5.01v47.857l14.2,14.236v92.12h12.1V450.256h16.476Z" fill="#fff" opacity="0.1"/>
        <path id="Path_4" data-name="Path 4" d="M683.054,442.617v109.7H521.559V433.5h16.585v34.415h9.677l20.21-20.226V425.549h9.257V398.26h8.557V354h4.279V398.26h7.841v27.631l7.624,7.608V473h12.944V458.424h22.84V422.033h22.373V403.908h7.281v38.709Z" fill="#fff" opacity="0.1"/>
        <path id="Path_5" data-name="Path 5" d="M675.9,456.588V406.024h-3.75V372.48H669.69v33.544h-1.276v50.564H656.325V489.1h-16.2V466.016H629.985v-23.4h-18.7v23.4H598.308v17.223H568.047v-6.659h-8.6V446.086H544.01v30.494H521.559v75.738H683.054v-95.73Z" fill="#263238"/>
        <path id="Path_6" data-name="Path 6" d="M675.9,456.588V406.024h-3.75V372.48H669.69v33.544h-1.276v50.564H656.325V489.1h-16.2V466.016H629.985v-23.4h-18.7v23.4H598.308v17.223H568.047v-6.659h-8.6V446.086H544.01v30.494H521.559v75.738H683.054v-95.73Z" fill="#fff" opacity="0.2"/>
        <path id="Path_7" data-name="Path 7" d="M508.537,456.588V408.715l-3.75-2.692V372.48h-2.458v33.544l-5.336,2.692v47.873H484.9V421.629h-16.2v36.3l-10.144,8.09V472.3h-14.64v22.062H430.948V463H400.672v-6.674l-8.6-5.4V431.244H376.65v45.337H354.184v75.738h161.51V463.34Z" fill="#263238"/>
        <path id="Path_8" data-name="Path 8" d="M508.537,456.588V408.715l-3.75-2.692V372.48h-2.458v33.544l-5.336,2.692v47.873H484.9V421.629h-16.2v36.3l-10.144,8.09V472.3h-14.64v22.062H430.948V463H400.672v-6.674l-8.6-5.4V431.244H376.65v45.337H354.184v75.738h161.51V463.34Z" fill="#fff" opacity="0.2"/>
        <path id="Path_9" data-name="Path 9" d="M612.077,235.988a22.373,22.373,0,0,1-31.116,31.739,25.049,25.049,0,1,0,31.116-31.739Z" fill="#fff"/>
        <rect id="Rectangle_6" data-name="Rectangle 6" width="341.908" height="14.811" transform="translate(347.665 147.726)" fill="#fff" stroke="#263238" stroke-linecap="round" stroke-linejoin="round" stroke-width="1.556"/>
        <rect id="Rectangle_7" data-name="Rectangle 7" width="340.01" height="3.641" transform="translate(348.614 164.824)" fill="#fff" stroke="#263238" stroke-linecap="round" stroke-linejoin="round" stroke-width="1.556"/>
        <rect id="Rectangle_8" data-name="Rectangle 8" width="340.01" height="3.641" transform="translate(348.614 170.767)" fill="#fff" stroke="#263238" stroke-linecap="round" stroke-linejoin="round" stroke-width="1.556"/>
        <rect id="Rectangle_9" data-name="Rectangle 9" width="340.01" height="3.641" transform="translate(348.614 176.711)" fill="#fff" stroke="#263238" stroke-linecap="round" stroke-linejoin="round" stroke-width="1.556"/>
        <rect id="Rectangle_10" data-name="Rectangle 10" width="340.01" height="3.641" transform="translate(348.614 182.654)" fill="#fff" stroke="#263238" stroke-linecap="round" stroke-linejoin="round" stroke-width="1.556"/>
        <rect id="Rectangle_11" data-name="Rectangle 11" width="340.01" height="3.641" transform="translate(348.614 188.597)" fill="#fff" stroke="#263238" stroke-linecap="round" stroke-linejoin="round" stroke-width="1.556"/>
        <rect id="Rectangle_12" data-name="Rectangle 12" width="340.01" height="3.641" transform="translate(348.614 194.54)" fill="#fff" stroke="#263238" stroke-linecap="round" stroke-linejoin="round" stroke-width="1.556"/>
      </g>
      <g id="freepik--Notes--inject-38">
        <path id="Path_10" data-name="Path 10" d="M148.861,383.791V302.468h42.956" fill="none" stroke="#263238" stroke-linecap="round" stroke-linejoin="round" stroke-width="1.556"/>
        <path id="Path_11" data-name="Path 11" d="M148.861,395.444v7.2h2.832" fill="none" stroke="#263238" stroke-linecap="round" stroke-linejoin="round" stroke-width="1.556"/>
        <path id="Path_12" data-name="Path 12" d="M216.291,392.317v10.331h-58.67" fill="none" stroke="#263238" stroke-linecap="round" stroke-linejoin="round" stroke-width="1.556"/>
        <path id="Path_13" data-name="Path 13" d="M197.87,302.468h18.421V382.78" fill="none" stroke="#263238" stroke-linecap="round" stroke-linejoin="round" stroke-width="1.556"/>
        <path id="Path_14" data-name="Path 14" d="M294.813,337.039V358.68H226.093V282.46" fill="none" stroke="#263238" stroke-linecap="round" stroke-linejoin="round" stroke-width="1.556"/>
        <line id="Line_1" data-name="Line 1" y2="8.619" transform="translate(294.813 322.258)" fill="none" stroke="#263238" stroke-linecap="round" stroke-linejoin="round" stroke-width="1.556"/>
        <path id="Path_15" data-name="Path 15" d="M226.093,274.883v-11.3h68.721v47.546" fill="none" stroke="#263238" stroke-linecap="round" stroke-linejoin="round" stroke-width="1.556"/>
        <path id="Path_16" data-name="Path 16" d="M167.469,474.9l-6.955,31.023-17.005-3.812" fill="none" stroke="#263238" stroke-linecap="round" stroke-linejoin="round" stroke-width="1.556"/>
        <path id="Path_17" data-name="Path 17" d="M139.589,501.225l-10.1-2.256,6.955-31.023,27.834,6.239" fill="none" stroke="#263238" stroke-linecap="round" stroke-linejoin="round" stroke-width="1.556"/>
        <path id="Path_18" data-name="Path 18" d="M151.662,475.211a1.385,1.385,0,1,1-.352-1.41,1.385,1.385,0,0,1,.352,1.41Z" fill="#263238"/>
        <path id="Path_19" data-name="Path 19" d="M180.18,491.641l-4.138-28.721,22.155-3.189" fill="none" stroke="#263238" stroke-linecap="round" stroke-linejoin="round" stroke-width="1.556"/>
        <path id="Path_20" data-name="Path 20" d="M207.252,476.083,208.9,487.5l-22.062,3.174" fill="none" stroke="#263238" stroke-linecap="round" stroke-linejoin="round" stroke-width="1.556"/>
        <line id="Line_2" data-name="Line 2" x2="1.727" y2="11.949" transform="translate(204.762 458.782)" fill="none" stroke="#263238" stroke-linecap="round" stroke-linejoin="round" stroke-width="1.556"/>
        <path id="Path_21" data-name="Path 21" d="M191.8,465.192a1.385,1.385,0,1,1-1.556-1.182A1.4,1.4,0,0,1,191.8,465.192Z" fill="#263238"/>
      </g>
      <g id="freepik--Clock--inject-38">
        <path id="Path_22" data-name="Path 22" d="M155.583,160.872a42.458,42.458,0,0,1,22.357-34.1" fill="none" stroke="#263238" stroke-linecap="round" stroke-linejoin="round" stroke-width="1.556"/>
        <path id="Path_23" data-name="Path 23" d="M188.037,205.571a42.381,42.381,0,0,1-25.873-18.437" fill="none" stroke="#263238" stroke-linecap="round" stroke-linejoin="round" stroke-width="1.556"/>
        <path id="Path_24" data-name="Path 24" d="M240.313,167.64a42.49,42.49,0,0,1-45.741,38.973" fill="none" stroke="#263238" stroke-linecap="round" stroke-linejoin="round" stroke-width="1.556"/>
        <path id="Path_25" data-name="Path 25" d="M201.339,121.915a42.505,42.505,0,0,1,38.724,36.577" fill="none" stroke="#263238" stroke-linecap="round" stroke-linejoin="round" stroke-width="1.556"/>
        <path id="Path_26" data-name="Path 26" d="M216.26,196.968a37.511,37.511,0,0,1-55.7-35.691" fill="none" stroke="#263238" stroke-linecap="round" stroke-linejoin="round" stroke-width="1.556"/>
        <path id="Path_27" data-name="Path 27" d="M162.973,150.775a37.48,37.48,0,1,1,62.949,38.444" fill="none" stroke="#263238" stroke-linecap="round" stroke-linejoin="round" stroke-width="1.556"/>
        <path id="Path_28" data-name="Path 28" d="M220.694,181.518l-22.731-17.254,12.587-13.489" fill="none" stroke="#263238" stroke-linecap="round" stroke-linejoin="round" stroke-width="1.556"/>
      </g>
      <g id="freepik--Character--inject-38">
        <path id="Path_29" data-name="Path 29" d="M92.229,655.812,79.985,551.431a23.555,23.555,0,0,1,23.337-26.309h71.4a32.331,32.331,0,0,1,32.019,27.837l17.114,122" fill="none" stroke="#263238" stroke-linecap="round" stroke-linejoin="round" stroke-width="1.556"/>
        <line id="Line_3" data-name="Line 3" x1="0.965" y1="8.168" transform="translate(93.521 666.796)" fill="none" stroke="#263238" stroke-linecap="round" stroke-linejoin="round" stroke-width="1.556"/>
        <path id="Path_30" data-name="Path 30" d="M85.1,683.832,70.6,560.3c-3.438-20.646,9.133-35.177,19.028-35.177" fill="none" stroke="#263238" stroke-linecap="round" stroke-linejoin="round" stroke-width="1.556"/>
        <path id="Path_31" data-name="Path 31" d="M342.9,633.952c-2.941,15.807-18.3,23.882-32.672,21.875-7.966-1.12-14.267-2.676-19.168-10.346-3.936-6.146-7-16.227-9.335-33.2-1.556-11.669.809-25.127,4.932-38.18,9.335-29.561,27.585-57.208,27.585-57.208s13.178,18.592,14.189,39.954,6.923,54.454,6.923,54.454S345.829,618.161,342.9,633.952Z" fill="#407bff"/>
        <g id="Group_2" data-name="Group 2" clip-path="url(#clip-path-2)">
          <path id="Path_32" data-name="Path 32" d="M310.247,641.591a39.113,39.113,0,0,1-19.168,3.89c-3.936-6.146-7-16.227-9.335-33.2-1.556-11.669.809-25.127,4.932-38.18a168.647,168.647,0,0,1,32.672-15.4s4.045,18.67,0,29.934c0,0,6.3-7.53,5.648-2.054S340.726,627.433,310.247,641.591Z" opacity="0.2"/>
        </g>
        <path id="Path_34" data-name="Path 34" d="M342.9,633.952c-2.941,15.807-18.3,23.882-32.672,21.875-7.966-1.12-14.267-2.676-19.168-10.346-3.936-6.146-7-16.227-9.335-33.2-1.556-11.669.809-25.127,4.932-38.18,9.335-29.561,27.585-57.208,27.585-57.208s13.178,18.592,14.189,39.954,6.923,54.454,6.923,54.454S345.829,618.161,342.9,633.952Z" fill="none" stroke="#263238" stroke-linecap="round" stroke-linejoin="round" stroke-width="1.556"/>
        <path id="Path_35" data-name="Path 35" d="M377.35,606.072s-31.117,9.9-37.34,10.315S320.733,628.211,325,639.133s23.073,8.495,31.257,4.247S378.035,626,383.558,625.6" fill="#fff" stroke="#263238" stroke-linecap="round" stroke-linejoin="round" stroke-width="1.556"/>
        <path id="Path_36" data-name="Path 36" d="M374.814,607.55c1.991-2.38,10.035-2.769,16.6-4.667,10.673-3.112,12.9-4.745,16.694-3.874,6.426,1.556,22.762,16.383,22.762,19.012s-7.468,10.253-7.468,10.253-38.616,6.317-46.052-4" fill="#fff" stroke="#263238" stroke-linecap="round" stroke-linejoin="round" stroke-width="1.556"/>
        <path id="Path_37" data-name="Path 37" d="M393.624,612.9c-.622,1.058-1.556,6.41,2.707,6.923s17.768-1.556,20.117,4.45-18.67,4.963-24.987,5.663-12.011-3.578-12.011-3.578" fill="#fff" stroke="#263238" stroke-linecap="round" stroke-linejoin="round" stroke-width="1.556"/>
        <path id="Path_38" data-name="Path 38" d="M398,611.331a13.085,13.085,0,0,0,9.335,3.843" fill="#fff" stroke="#263238" stroke-linecap="round" stroke-linejoin="round" stroke-width="1.556"/>
        <path id="Path_39" data-name="Path 39" d="M405.09,605.387s1.4,6.628,5.461,5.539" fill="#fff" stroke="#263238" stroke-linecap="round" stroke-linejoin="round" stroke-width="1.556"/>
        <path id="Path_40" data-name="Path 40" d="M117.932,704.789s25.08-211.172,138.78-217.676l50.735,18.234a64.209,64.209,0,0,1,6.861,11.544,75.209,75.209,0,0,1,6.394,46.052,78.88,78.88,0,0,1-6.814,20.381c-15.465,31.537-39.051,77.387-46.675,121.448" fill="#407bff"/>
        <g id="Group_3" data-name="Group 3" clip-path="url(#clip-path-3)">
          <path id="Path_41" data-name="Path 41" d="M298.423,615.049c-5.8,12.447-11.731,25.749-16.943,39.565l-12.9,1.214S178.2,684.05,150.542,673.144c-10.891-4.31-17.239-15.449-20.879-27.351,9.708-37.34,26.449-84.793,54.081-118.056-3.112,26.107-8.153,91.28,14.734,104.956S276.626,624.586,298.423,615.049Z" opacity="0.2"/>
          <path id="Path_42" data-name="Path 42" d="M297.443,541.178,285,529.354l-10.051,6.114c-21.7-11.731-30.09-35.193-32.921-46.286a89.793,89.793,0,0,1,14.687-2.069l46.006,16.523c5.29,4.667,9.506,9.117,11.466,13.022h0l.093.171c.14.3.28.576.4.856h0C321.387,533.819,297.443,541.178,297.443,541.178Z" opacity="0.2"/>
        </g>
        <path id="Path_44" data-name="Path 44" d="M117.932,704.789s25.08-211.172,138.78-217.676l50.735,18.234a64.209,64.209,0,0,1,6.861,11.544,75.209,75.209,0,0,1,6.394,46.052,78.88,78.88,0,0,1-6.814,20.381c-15.465,31.537-39.051,77.387-46.675,121.448" fill="none" stroke="#263238" stroke-linecap="round" stroke-linejoin="round" stroke-width="1.556"/>
        <path id="Path_45" data-name="Path 45" d="M256.711,503.574a106.2,106.2,0,0,0-19.339,4.31" fill="none" stroke="#263238" stroke-linecap="round" stroke-linejoin="round" stroke-width="1.556"/>
        <path id="Path_46" data-name="Path 46" d="M261.612,489.292S272.5,532.357,293.46,554.2l3.112,15.776s-5.492,32.066-.685,43.485-.653,16.212-12.789,23.68-14,35.66-14,35.66l12.727,11.233,11.529-11.529s-1.214-27.3,0-32.159,10.891-5.757,14.874-10.611-1.12-20.086-4.356-30.525-3.236-29.234-3.236-29.234l5.57-16.1s10.237-23.337,7.655-33.061l-6.068,1.073s3.983,12.587-3.812,29.25l-7.359-.3s-21.361-30.292-25.593-47.3S261.612,489.292,261.612,489.292Z" fill="#263238"/>
        <path id="Path_47" data-name="Path 47" d="M298.314,543.279l-6.674-16.072L280.049,541.77s-30.245-33.886-25.033-57.721c0,0,14-7.779,19.183-7.95,12.711-.249,34.228,23.042,40.451,36.1s7.53,21.268,7.53,21.268-7.53-13.6-7.53-10.191c0,1.758-4.4,7.095-8.635,11.809" fill="#407bff" stroke="#263238" stroke-linecap="round" stroke-linejoin="round" stroke-width="1.556"/>
        <path id="Path_48" data-name="Path 48" d="M335.374,473.267a111.026,111.026,0,0,1-5.539,16.1c-1.976,4.465-4.434,8.681-7.157,10.766-.436.327-.887.7-1.338,1.074a102.975,102.975,0,0,0-11.606,11.731c-1.556,1.758-10.5,26.714-10.5,26.714s-6.223-18.919-7.872-20.039c-21.782-14.718-17.581-33.295-17.581-33.295,28.985-10.237,29.794-25.8,29.794-25.8l18.592-27.6Z" fill="#fff" stroke="#263238" stroke-linecap="round" stroke-linejoin="round" stroke-width="1.556"/>
        <path id="Path_49" data-name="Path 49" d="M273.825,486.32s.887-7.235,5.134-6.426" fill="none" stroke="#263238" stroke-linecap="round" stroke-linejoin="round" stroke-width="1.556"/>
        <path id="Path_50" data-name="Path 50" d="M329.835,489.369c-1.976,4.465-4.434,8.681-7.157,10.766-.436.327-.887.7-1.338,1.074-8.526-8.479-6.815-12.711-7.11-18.125Z" fill="#263238"/>
        <path id="Path_51" data-name="Path 51" d="M299.512,470.84c-10.766-37.682,7.608-86.348,45.741-86.1,57.363.358,39.891,53.209,34.913,75.286-4.263,18.981-.311,33.03-20.879,49.024-9.646,7.515-35.006-7.779-44.683-19.012-2.754-3.236-2.194-8.713-2.194-8.713" fill="#fff" stroke="#263238" stroke-linecap="round" stroke-linejoin="round" stroke-width="1.556"/>
        <path id="Path_52" data-name="Path 52" d="M376.51,435.631s6.223-.187,8.277,3.594" fill="none" stroke="#263238" stroke-linecap="round" stroke-linejoin="round" stroke-width="1.556"/>
        <path id="Path_53" data-name="Path 53" d="M359.287,432.52s-11.84-6.005-20.008,1.182" fill="none" stroke="#263238" stroke-linecap="round" stroke-linejoin="round" stroke-width="1.556"/>
        <path id="Path_54" data-name="Path 54" d="M349.563,449.634c-.4,1.82-1.556,3.112-2.567,2.878s-1.556-1.867-1.151-3.687a7.779,7.779,0,0,1,3.765-1.214A4.963,4.963,0,0,1,349.563,449.634Z" fill="#263238"/>
        <path id="Path_55" data-name="Path 55" d="M351.057,447.518a8.736,8.736,0,0,0-1.447,0,7.779,7.779,0,0,0-3.765,1.214" fill="none" stroke="#263238" stroke-linecap="round" stroke-linejoin="round" stroke-width="1.556"/>
        <path id="Path_56" data-name="Path 56" d="M349.314,453.414a4.5,4.5,0,0,1-4.559,3.034" fill="#fff" stroke="#263238" stroke-linecap="round" stroke-linejoin="round" stroke-width="1.556"/>
        <path id="Path_57" data-name="Path 57" d="M346.731,444.764a7.9,7.9,0,0,1,3.89,0" fill="#fff" stroke="#263238" stroke-linecap="round" stroke-linejoin="round" stroke-width="1.556"/>
        <path id="Path_58" data-name="Path 58" d="M349.065,436.829c2.023.373,2.334,4.4,2.334,4.4" fill="#fff" stroke="#263238" stroke-linecap="round" stroke-linejoin="round" stroke-width="1.556"/>
        <path id="Path_59" data-name="Path 59" d="M374.083,454.97c-.4,1.82-1.556,3.112-2.567,2.863s-1.556-1.867-1.136-3.687a7.624,7.624,0,0,1,3.765-1.214A4.807,4.807,0,0,1,374.083,454.97Z" fill="#263238"/>
        <path id="Path_60" data-name="Path 60" d="M375.576,452.9a14,14,0,0,0-1.431,0,7.624,7.624,0,0,0-3.765,1.214" fill="none" stroke="#263238" stroke-linecap="round" stroke-linejoin="round" stroke-width="1.556"/>
        <path id="Path_61" data-name="Path 61" d="M373.849,458.8a4.512,4.512,0,0,1-4.559,3.034" fill="#fff" stroke="#263238" stroke-linecap="round" stroke-linejoin="round" stroke-width="1.556"/>
        <path id="Path_62" data-name="Path 62" d="M371.251,450.163a7.873,7.873,0,0,1,3.905,0" fill="#fff" stroke="#263238" stroke-linecap="round" stroke-linejoin="round" stroke-width="1.556"/>
        <path id="Path_63" data-name="Path 63" d="M373.6,442.212c2.007.373,2.318,4.4,2.318,4.4" fill="#fff" stroke="#263238" stroke-linecap="round" stroke-linejoin="round" stroke-width="1.556"/>
        <path id="Path_64" data-name="Path 64" d="M369.042,441.217c-7.126,7.935-3.858,19.852.124,24.893s-5.959,8.277-5.959,8.277" fill="#fff" stroke="#263238" stroke-linecap="round" stroke-linejoin="round" stroke-width="1.556"/>
        <path id="Path_65" data-name="Path 65" d="M345.922,489.012c-.98,1.182,1.4,1.758,2.5,2.163a22.122,22.122,0,0,0,4.512.7c2.411.342,8.479.467,11.886-3.718l1-1.945S348.754,485.667,345.922,489.012Z" fill="#fff" stroke="#263238" stroke-linecap="round" stroke-linejoin="round" stroke-width="1.556"/>
        <path id="Path_66" data-name="Path 66" d="M311.165,448.218a12.447,12.447,0,0,0,6.223,2.66,108.564,108.564,0,0,1,5.788-9.553c2.723-3.843,18.545-16.616,17.254-28a70.345,70.345,0,0,1,12.447-1.058s-2.567,6.752,8.028,6.643,9.024,5.772,9.024,5.772,4.279-.965,1.556-5.9c0,0,16.383-.3,14.391,13.178,0,0,4.123,3.641,8-2.832a2.878,2.878,0,0,1-3.625-.794c-1.463-1.945,6.6-13.193.576-20.739,0,0,6.394-14.858-5.119-20.366s-11.871-13.722-11.871-13.722-3.112,1.2-2.707,5.648c0,0-16.149-7.344-22.933-6.13s-13.162,6.861-13.162,6.861-18.125-5.056-26.9,6.566-14.282,8.246-14.282,8.246.949,4.325,4.543,4c0,0-11.077,13.4-8.526,27.709s-3.578,16.243-3.578,16.243a4.279,4.279,0,0,0,4.916,1.089s-2.272,19.37,7.546,28.269c3.656,3.283,6.317,1.478,7.624-3.252C307.836,463.729,307.1,452.574,311.165,448.218Z" fill="#757575" stroke="#263238" stroke-linecap="round" stroke-linejoin="round" stroke-width="1.556"/>
        <path id="Path_67" data-name="Path 67" d="M314.992,451.7s-1.556-13.209-7.935-15.652-14.811,13.66-9.755,24.349,10.082,15.06,13.551,10.144-1.914-4.916-1.914-4.916" fill="#fff" stroke="#263238" stroke-linecap="round" stroke-linejoin="round" stroke-width="1.556"/>
        <path id="Path_68" data-name="Path 68" d="M336.229,404.7s10.051-7.281,19.51-3.952,5.228,11.233,10.082,13.349" fill="none" stroke="#263238" stroke-linecap="round" stroke-linejoin="round" stroke-width="1.556"/>
        <path id="Path_69" data-name="Path 69" d="M335.545,388.225c7.919-6.628,30.728-8.012,33.746,5.259" fill="none" stroke="#263238" stroke-linecap="round" stroke-linejoin="round" stroke-width="1.556"/>
        <path id="Path_70" data-name="Path 70" d="M331.686,397.871a9.2,9.2,0,0,1,.856-5.959" fill="none" stroke="#263238" stroke-linecap="round" stroke-linejoin="round" stroke-width="1.556"/>
        <path id="Path_71" data-name="Path 71" d="M380.7,389.625a22.946,22.946,0,0,0-2.8-3.874" fill="none" stroke="#263238" stroke-linecap="round" stroke-linejoin="round" stroke-width="1.556"/>
        <path id="Path_72" data-name="Path 72" d="M370.1,403.628c6.317,1.12,14.314-1.4,12.447-9.335" fill="none" stroke="#263238" stroke-linecap="round" stroke-linejoin="round" stroke-width="1.556"/>
        <path id="Path_73" data-name="Path 73" d="M387.9,416.074c.513,3.765-.311,9.211,2.412,12.244" fill="none" stroke="#263238" stroke-linecap="round" stroke-linejoin="round" stroke-width="1.556"/>
        <path id="Path_74" data-name="Path 74" d="M374.752,410.007c3.563-2.863,9.335-4.667,11.606.716" fill="none" stroke="#263238" stroke-linecap="round" stroke-linejoin="round" stroke-width="1.556"/>
        <path id="Path_75" data-name="Path 75" d="M318.851,429.035c-2.567,1.556-4.994,3.485-4.574,6.768" fill="none" stroke="#263238" stroke-linecap="round" stroke-linejoin="round" stroke-width="1.556"/>
        <path id="Path_76" data-name="Path 76" d="M331.5,408.793c7.328,7.095-2.707,14.282-8.495,17.783" fill="none" stroke="#263238" stroke-linecap="round" stroke-linejoin="round" stroke-width="1.556"/>
        <path id="Path_77" data-name="Path 77" d="M323.347,402.57s-6.068-7.577-14.111,0-.451,23.337-6.83,28.518" fill="none" stroke="#263238" stroke-linecap="round" stroke-linejoin="round" stroke-width="1.556"/>
        <path id="Path_78" data-name="Path 78" d="M326.381,396.813s-1.976-9.335-9.1-9.413-11.9,8.044-11.9,8.044" fill="none" stroke="#263238" stroke-linecap="round" stroke-linejoin="round" stroke-width="1.556"/>
        <path id="Path_79" data-name="Path 79" d="M181.44,643.614s12.649,48.044,55.9,54.609" fill="none" stroke="#263238" stroke-linecap="round" stroke-linejoin="round" stroke-width="1.556"/>
        <path id="Path_80" data-name="Path 80" d="M310.247,577.289s-29.125,42.521-78.429,50.984" fill="none" stroke="#263238" stroke-linecap="round" stroke-linejoin="round" stroke-width="1.556"/>
        <path id="Path_81" data-name="Path 81" d="M229.578,545.192c1.4,34.228-13.769,54.578-13.769,54.578s-9.1,24.146-6.068,37.34-27.9,30.805-40.638,29.561-20.023-7.219-21.3-21.159,6.068-25.687,6.068-25.687-1.758-38.46,17.021-71.568,33.326-34.975,33.326-34.975" fill="#407bff"/>
        <g id="Group_4" data-name="Group 4" clip-path="url(#clip-path-4)">
          <path id="Path_82" data-name="Path 82" d="M169.1,666.749c-10.424-1-17.114-5.243-19.977-14.391-4.17-18.67,14.1-31.583,33.015-34.337,14.111-2.054,22.917,1.851,27.585,5.165a40.187,40.187,0,0,0,0,14C212.775,650.335,181.829,667.947,169.1,666.749Z" opacity="0.2"/>
        </g>
        <path id="Path_84" data-name="Path 84" d="M229.578,545.192c1.4,34.228-13.769,54.578-13.769,54.578s-9.1,24.146-6.068,37.34-27.9,30.805-40.638,29.561-20.023-7.219-21.3-21.159,6.068-25.687,6.068-25.687-1.758-38.46,17.021-71.568,33.326-34.975,33.326-34.975" fill="none" stroke="#263238" stroke-linecap="round" stroke-linejoin="round" stroke-width="1.556"/>
        <path id="Path_85" data-name="Path 85" d="M153.933,619.825s10.315-14.127,25.173-12.12" fill="none" stroke="#263238" stroke-linecap="round" stroke-linejoin="round" stroke-width="1.556"/>
        <path id="Path_86" data-name="Path 86" d="M173.957,611.331s-9.335,11.731-7.437,20.07" fill="none" stroke="#263238" stroke-linecap="round" stroke-linejoin="round" stroke-width="1.556"/>
        <path id="Path_87" data-name="Path 87" d="M149.2,631.4s-1.338,24.115,10.191,24.411" fill="none" stroke="#263238" stroke-linecap="round" stroke-linejoin="round" stroke-width="1.556"/>
        <path id="Path_88" data-name="Path 88" d="M188.706,608.9s15.558.731,19.526,9.117" fill="none" stroke="#263238" stroke-linecap="round" stroke-linejoin="round" stroke-width="1.556"/>
        <path id="Path_89" data-name="Path 89" d="M202.351,612.4s-8.339-1.027-13.645,2.769" fill="none" stroke="#263238" stroke-linecap="round" stroke-linejoin="round" stroke-width="1.556"/>
        <path id="Path_90" data-name="Path 90" d="M185.143,556.83s8.6,27.74,23.073,36.235" fill="none" stroke="#263238" stroke-linecap="round" stroke-linejoin="round" stroke-width="1.556"/>
        <path id="Path_91" data-name="Path 91" d="M291.017,603.24c-16.165,4.854-57.005,15.372-76.018,15.372S185.89,615.5,174.968,622.7s-18.2,25.033-10.517,34.321,45.321,0,61.688-8.075,46.939-16.305,53.894-16.243,13.427-4.434,13.427-4.434" fill="#fff" stroke="#263238" stroke-linecap="round" stroke-linejoin="round" stroke-width="1.556"/>
        <path id="Path_92" data-name="Path 92" d="M336.774,608.9s11.186,9.335,16.134,9.708,13.022,1.665,9.957,5.663-20.226,4.854-31.49-4.45" fill="#fff" stroke="#263238" stroke-linecap="round" stroke-linejoin="round" stroke-width="1.556"/>
        <path id="Path_93" data-name="Path 93" d="M288.45,605.745a23.136,23.136,0,0,1,2.567-2.5s29.747-8.9,36.22-12.524,11.778,6.861,20.444,12.524,4.839,7.686,10.191,15.776c0,0-5.134,4.045-6.97,0s-13.116-13.629-13.116-13.629,7.7,13.178,9.9,15.434,3.5,5.072-1.8,5.072-6.908-2.832-10.144-6.877-7.281-8.09-7.281-8.09,5.974,7.686,4.807,9.708-2.785,4.45-4.4,5.259-4.419-1.556-4.419-1.556a11.841,11.841,0,0,1-5.959,3.641c-3.267.513-8.23-2.318-8.23-2.318s-11.373,9.926-19.23,6.317a13.007,13.007,0,0,1-6.083-6.317" fill="#fff" stroke="#263238" stroke-linecap="round" stroke-linejoin="round" stroke-width="1.556"/>
        <path id="Path_94" data-name="Path 94" d="M310.247,625.6s.607-5.772,2.629-5.772,4.667,2.878,4.667,2.878" fill="none" stroke="#263238" stroke-linecap="round" stroke-linejoin="round" stroke-width="1.556"/>
        <path id="Path_95" data-name="Path 95" d="M324.436,624.275a4.372,4.372,0,0,0,0-4.45,126.4,126.4,0,0,0-7.312-11.326" fill="none" stroke="#263238" stroke-linecap="round" stroke-linejoin="round" stroke-width="1.556"/>
        <path id="Path_96" data-name="Path 96" d="M328.45,610.926s-3.283-5.617-3.89-6.441" fill="none" stroke="#263238" stroke-linecap="round" stroke-linejoin="round" stroke-width="1.556"/>
        <path id="Path_97" data-name="Path 97" d="M337.785,605.387s-4.356-5.228-5.352-5.617" fill="none" stroke="#263238" stroke-linecap="round" stroke-linejoin="round" stroke-width="1.556"/>
        <path id="Path_98" data-name="Path 98" d="M535.889,637.142H505.037c-6.674,0-137.551-.311-144.21-.9l-46.208-4.123a1.929,1.929,0,0,1-1.742-1.914h0a1.929,1.929,0,0,1,1.914-1.929H540.9a1.945,1.945,0,0,1,1.929,1.929h0A6.939,6.939,0,0,1,535.889,637.142Z" fill="#757575" stroke="#263238" stroke-linecap="round" stroke-linejoin="round" stroke-width="1.556"/>
        <path id="Path_99" data-name="Path 99" d="M539.374,631.836H407.02a3.594,3.594,0,0,1-3.47-5.134l38.118-116.2a7.779,7.779,0,0,1,6.83-5.15H580.852c2.847,0,4.4,2.3,3.469,5.15L546.2,626.7A7.779,7.779,0,0,1,539.374,631.836Z" fill="#999" stroke="#263238" stroke-linecap="round" stroke-linejoin="round" stroke-width="1.556"/>
        <path id="Path_100" data-name="Path 100" d="M544.9,631.836H412.543a3.594,3.594,0,0,1-3.47-5.134l38.118-116.2a7.779,7.779,0,0,1,6.83-5.15H586.375c2.847,0,4.4,2.3,3.469,5.15L551.727,626.7A7.779,7.779,0,0,1,544.9,631.836Z" fill="#757575" stroke="#263238" stroke-linecap="round" stroke-linejoin="round" stroke-width="1.556"/>
        <path id="Path_101" data-name="Path 101" d="M395.18,637.142H364.3q-10.035,0-20.023-.9l-46.208-4.123a1.929,1.929,0,0,1-1.758-1.914h0a1.945,1.945,0,0,1,1.929-1.929H400.158a1.945,1.945,0,0,1,1.929,1.929h0a6.939,6.939,0,0,1-6.908,6.939Z" fill="#999" stroke="#263238" stroke-linecap="round" stroke-linejoin="round" stroke-width="1.556"/>
        <path id="Path_102" data-name="Path 102" d="M509.035,558.541c.156-.513.327-1.027.513-1.556a5.242,5.242,0,0,0-1.338-.187c-5.274,0-11.746,7.126-14.469,15.9s-.622,15.9,4.667,15.9c4.963,0,10.984-6.223,14-14.376C508.07,573.135,506.561,566.538,509.035,558.541Z" fill="#407bff" stroke="#263238" stroke-linecap="round" stroke-linejoin="round" stroke-width="1.556"/>
        <path id="Path_103" data-name="Path 103" d="M623.077,704.773l2.692-37.978h-16.99l.124,37.978" fill="#bfbfbf" stroke="#263238" stroke-linecap="round" stroke-linejoin="round" stroke-width="1.556"/>
        <path id="Path_104" data-name="Path 104" d="M529.027,704.773l4.979-37.978H551l-6.254,37.978" fill="#bfbfbf" stroke="#263238" stroke-linecap="round" stroke-linejoin="round" stroke-width="1.556"/>
        <path id="Path_105" data-name="Path 105" d="M374.643,704.773,377.35,666.8H360.345l.124,37.978" fill="#bfbfbf" stroke="#263238" stroke-linecap="round" stroke-linejoin="round" stroke-width="1.556"/>
        <path id="Path_106" data-name="Path 106" d="M280.609,704.773l4.963-37.978h17.005l-6.27,37.978" fill="#bfbfbf" stroke="#263238" stroke-linecap="round" stroke-linejoin="round" stroke-width="1.556"/>
        <rect id="Rectangle_13" data-name="Rectangle 13" width="292.262" height="14.391" transform="translate(277.279 656.123)" fill="#999" stroke="#263238" stroke-linecap="round" stroke-linejoin="round" stroke-width="1.556"/>
        <path id="Path_107" data-name="Path 107" d="M637.017,670.514H367.751V656.123H637.017" fill="#fff" stroke="#263238" stroke-linecap="round" stroke-linejoin="round" stroke-width="1.556"/>
        <rect id="Rectangle_14" data-name="Rectangle 14" width="365.463" height="25.951" rx="2.692" transform="translate(259.481 634.964)" fill="#bfbfbf" stroke="#263238" stroke-linecap="round" stroke-linejoin="round" stroke-width="1.556"/>
        <path id="Path_108" data-name="Path 108" d="M668.6,634.964H365.215a2.645,2.645,0,0,0-2.66,2.66v20.63a2.645,2.645,0,0,0,2.66,2.66H653.26" fill="#fff" stroke="#263238" stroke-linecap="round" stroke-linejoin="round" stroke-width="1.556"/>
      </g>
    </g>
  </g>
</svg>
